<svg width="35" height="35" viewBox="0 0 35 35" fill="none" xmlns="http://www.w3.org/2000/svg">
<path d="M29.873 0H23.6523C20.8253 0 18.5254 2.29995 18.5254 5.12695V11.3477C18.5254 15.3055 15.3055 18.5254 11.3477 18.5254H5.12695C2.29995 18.5254 0 20.8253 0 23.6523V29.873C0 32.7001 2.29995 35 5.12695 35H11.3477C14.1747 35 16.4746 32.7001 16.4746 29.873V23.6523C16.4746 19.6945 19.6945 16.4746 23.6523 16.4746H29.873C32.7001 16.4746 35 14.1747 35 11.3477V5.12695C35 2.29995 32.7001 0 29.873 0Z" fill="white"/>
</svg>
