<svg width="263" height="264" viewBox="0 0 263 264" fill="none" xmlns="http://www.w3.org/2000/svg">
<rect x="0.5" y="0.5" width="262" height="263" rx="10.5" fill="#D1F4F9" stroke="#A3E0E8"/>
<path d="M203.758 138.066L261.654 74.3811C261.876 74.1359 262 73.8164 262 73.4849C262 72.2622 260.491 71.6852 259.675 72.5961L202.258 136.712C202.092 136.898 202 137.138 202 137.386C202 138.31 203.137 138.749 203.758 138.066Z" fill="url(#paint0_linear_10_61)" fill-opacity="0.35"/>
<path d="M2.63528 70.4508L74.8094 2.07533C75.5985 1.32776 75.0694 0 73.9824 0C73.6728 0 73.3751 0.119425 73.1514 0.333413L1.29925 69.0471C1.10811 69.2299 1 69.4829 1 69.7474C1 70.598 2.01775 71.0358 2.63528 70.4508Z" fill="url(#paint1_linear_10_61)" fill-opacity="0.35"/>
<path d="M203.719 251.995L260.39 185.878C261.023 185.14 260.498 184 259.526 184C259.192 184 258.875 184.146 258.659 184.401L202.233 250.726C202.083 250.903 202 251.127 202 251.359C202 252.266 203.128 252.684 203.719 251.995Z" fill="url(#paint2_linear_10_61)" fill-opacity="0.35"/>
<path d="M180.823 50.7694L241.021 3.86379C241.568 3.43779 241.68 2.65585 241.275 2.09326C240.846 1.4973 240.007 1.37905 239.43 1.83331L179.476 49.0499C178.662 49.6912 179.115 51 180.152 51C180.395 51 180.631 50.9188 180.823 50.7694Z" fill="url(#paint3_linear_10_61)" fill-opacity="0.35"/>
<path d="M91.499 254.929L119.748 225.327C120.35 224.696 120.13 223.656 119.323 223.324C118.85 223.129 118.306 223.244 117.953 223.614L89.7113 253.223C89.2994 253.655 89.2551 254.32 89.6062 254.803C90.0595 255.426 90.9668 255.487 91.499 254.929Z" fill="url(#paint4_linear_10_61)" fill-opacity="0.35"/>
<path d="M2.42268 195.107L39.2048 158.779C39.8611 158.131 39.73 157.038 38.9391 156.563C38.3864 156.232 37.6793 156.316 37.2205 156.769L0.423427 193.082C0.152506 193.35 0 193.714 0 194.095C0 195.358 1.52382 195.995 2.42268 195.107Z" fill="url(#paint5_linear_10_61)" fill-opacity="0.35"/>
<circle cx="131.5" cy="72.5" r="41.5" fill="#35AFBF"/>
<path d="M125.348 55H119.127C116.3 55 114 57.3 114 60.127V66.3477C114 69.1747 116.3 71.4746 119.127 71.4746H125.348C128.175 71.4746 130.475 69.1747 130.475 66.3477V60.127C130.475 57.3 128.175 55 125.348 55Z" fill="white"/>
<path d="M143.873 73.5254H137.652C134.825 73.5254 132.525 75.8253 132.525 78.6523V84.873C132.525 87.7 134.825 90 137.652 90H143.873C146.7 90 149 87.7 149 84.873V78.6523C149 75.8253 146.7 73.5254 143.873 73.5254Z" fill="white"/>
<path d="M143.873 55H137.652C134.825 55 132.525 57.3 132.525 60.127V66.3477C132.525 70.3055 129.305 73.5254 125.348 73.5254H119.127C116.3 73.5254 114 75.8253 114 78.6523V84.873C114 87.7001 116.3 90 119.127 90H125.348C128.175 90 130.475 87.7001 130.475 84.873V78.6523C130.475 74.6945 133.695 71.4746 137.652 71.4746H143.873C146.7 71.4746 149 69.1747 149 66.3477V60.127C149 57.3 146.7 55 143.873 55Z" fill="white"/>
<path d="M35.0263 183.44C35.741 183.44 36.3596 183.573 36.8823 183.84C37.4156 184.096 37.8316 184.464 38.1303 184.944C38.429 185.424 38.5783 185.995 38.5783 186.656C38.5783 187.317 38.429 187.888 38.1303 188.368C37.8316 188.848 37.4156 189.221 36.8823 189.488C36.3596 189.744 35.741 189.872 35.0263 189.872H32.5783V194H31.2983V183.44H35.0263ZM34.8343 188.672C35.6663 188.672 36.2743 188.501 36.6583 188.16C37.0423 187.808 37.2343 187.307 37.2343 186.656C37.2343 185.995 37.0423 185.493 36.6583 185.152C36.2743 184.811 35.6663 184.64 34.8343 184.64H32.5783V188.672H34.8343ZM43.9953 185.84C44.7526 185.84 45.4193 186.005 45.9953 186.336C46.582 186.667 47.0406 187.147 47.3713 187.776C47.702 188.395 47.8673 189.136 47.8673 190C47.8673 190.864 47.702 191.611 47.3713 192.24C47.0406 192.859 46.582 193.333 45.9953 193.664C45.4193 193.995 44.7526 194.16 43.9953 194.16C43.2486 194.16 42.582 193.995 41.9953 193.664C41.4086 193.333 40.95 192.859 40.6193 192.24C40.2886 191.611 40.1233 190.864 40.1233 190C40.1233 189.136 40.2886 188.395 40.6193 187.776C40.95 187.147 41.4086 186.667 41.9953 186.336C42.582 186.005 43.2486 185.84 43.9953 185.84ZM43.9953 186.944C43.1846 186.944 42.55 187.216 42.0913 187.76C41.6326 188.304 41.4033 189.051 41.4033 190C41.4033 190.949 41.6326 191.696 42.0913 192.24C42.55 192.784 43.1846 193.056 43.9953 193.056C44.806 193.056 45.4406 192.784 45.8993 192.24C46.358 191.696 46.5873 190.949 46.5873 190C46.5873 189.051 46.358 188.304 45.8993 187.76C45.4406 187.216 44.806 186.944 43.9953 186.944ZM60.0591 186H61.4831L58.6991 194H57.4191L55.1631 187.632L53.0351 194H51.7551L48.9711 186H50.3951L52.4111 192.512L54.5871 186H55.8671L58.0431 192.512L60.0591 186ZM66.4961 194.16C65.7387 194.16 65.0614 193.995 64.4641 193.664C63.8774 193.333 63.4187 192.859 63.0881 192.24C62.7574 191.611 62.5921 190.864 62.5921 190C62.5921 189.136 62.7574 188.395 63.0881 187.776C63.4187 187.147 63.8721 186.667 64.4481 186.336C65.0241 186.005 65.6801 185.84 66.4161 185.84C67.1627 185.84 67.7974 186 68.3201 186.32C68.8534 186.64 69.2587 187.077 69.5361 187.632C69.8134 188.176 69.9521 188.789 69.9521 189.472C69.9521 189.653 69.9467 189.819 69.9361 189.968C69.9254 190.117 69.9094 190.251 69.8881 190.368H63.8561C63.9201 191.211 64.1814 191.867 64.6401 192.336C65.0987 192.805 65.7067 193.04 66.4641 193.04C67.0507 193.04 67.5254 192.928 67.8881 192.704C68.2614 192.48 68.5601 192.176 68.7841 191.792L69.7921 192.384C69.4934 192.928 69.0614 193.36 68.4961 193.68C67.9414 194 67.2747 194.16 66.4961 194.16ZM66.3841 186.96C65.7121 186.96 65.1574 187.163 64.7201 187.568C64.2934 187.963 64.0214 188.517 63.9041 189.232H68.6721C68.6401 188.507 68.4161 187.947 68.0001 187.552C67.5841 187.157 67.0454 186.96 66.3841 186.96ZM72.3864 194V186H73.4264L73.6024 187.312C74.0504 186.331 74.9038 185.84 76.1624 185.84C76.3011 185.84 76.4504 185.851 76.6104 185.872C76.7811 185.893 76.9251 185.936 77.0424 186L76.8184 187.168C76.7011 187.125 76.5731 187.093 76.4344 187.072C76.2958 187.051 76.0984 187.04 75.8424 187.04C75.5118 187.04 75.1758 187.136 74.8344 187.328C74.5038 187.52 74.2264 187.813 74.0024 188.208C73.7784 188.592 73.6664 189.083 73.6664 189.68V194H72.3864ZM83.4937 186V187.104H80.8217V194H79.5417V187.104H77.9417V186H79.5417V184.656C79.5417 183.941 79.7604 183.36 80.1977 182.912C80.635 182.464 81.291 182.24 82.1657 182.24C82.443 182.24 82.7044 182.272 82.9497 182.336C83.195 182.4 83.387 182.491 83.5257 182.608L83.1897 183.648C82.9337 183.488 82.6297 183.408 82.2777 183.408C81.819 183.408 81.4617 183.52 81.2057 183.744C80.9497 183.957 80.8217 184.304 80.8217 184.784V186H83.4937ZM88.0949 194.16C87.5829 194.16 87.0976 194.064 86.6389 193.872C86.1909 193.68 85.8229 193.371 85.5349 192.944C85.2576 192.507 85.1189 191.941 85.1189 191.248V186H86.3989V190.912C86.3989 191.723 86.5749 192.283 86.9269 192.592C87.2789 192.891 87.7749 193.04 88.4149 193.04C88.8203 193.04 89.2043 192.949 89.5669 192.768C89.9296 192.576 90.2283 192.283 90.4629 191.888C90.6976 191.493 90.8149 190.981 90.8149 190.352V186H92.0949V194H90.9749L90.8949 192.784C90.6176 193.264 90.2389 193.616 89.7589 193.84C89.2896 194.053 88.7349 194.16 88.0949 194.16ZM96.2899 182.32V191.968C96.2899 192.373 96.3646 192.656 96.5139 192.816C96.6633 192.965 96.9033 193.04 97.2339 193.04C97.4473 193.04 97.6233 193.024 97.7619 192.992C97.9006 192.96 98.0873 192.901 98.3219 192.816L98.1139 193.936C97.7619 194.085 97.3673 194.16 96.9299 194.16C95.6499 194.16 95.0099 193.445 95.0099 192.016V182.32H96.2899ZM108.167 185.84C108.989 185.84 109.671 186.032 110.215 186.416C110.759 186.789 111.181 187.307 111.479 187.968L110.263 188.544C110.093 188.032 109.831 187.643 109.479 187.376C109.138 187.099 108.69 186.96 108.135 186.96C107.335 186.96 106.706 187.232 106.247 187.776C105.799 188.309 105.575 189.051 105.575 190C105.575 190.949 105.799 191.696 106.247 192.24C106.706 192.773 107.335 193.04 108.135 193.04C108.765 193.04 109.266 192.896 109.639 192.608C110.013 192.32 110.258 191.915 110.375 191.392L111.559 191.808C111.293 192.544 110.871 193.12 110.295 193.536C109.73 193.952 109.021 194.16 108.167 194.16C107.421 194.16 106.754 193.995 106.167 193.664C105.581 193.333 105.122 192.859 104.791 192.24C104.461 191.611 104.295 190.864 104.295 190C104.295 189.136 104.461 188.395 104.791 187.776C105.122 187.147 105.581 186.667 106.167 186.336C106.754 186.005 107.421 185.84 108.167 185.84ZM113.808 194V186H114.848L115.024 187.312C115.472 186.331 116.326 185.84 117.584 185.84C117.723 185.84 117.872 185.851 118.032 185.872C118.203 185.893 118.347 185.936 118.464 186L118.24 187.168C118.123 187.125 117.995 187.093 117.856 187.072C117.718 187.051 117.52 187.04 117.264 187.04C116.934 187.04 116.598 187.136 116.256 187.328C115.926 187.52 115.648 187.813 115.424 188.208C115.2 188.592 115.088 189.083 115.088 189.68V194H113.808ZM123.434 194.16C122.676 194.16 121.999 193.995 121.402 193.664C120.815 193.333 120.356 192.859 120.026 192.24C119.695 191.611 119.53 190.864 119.53 190C119.53 189.136 119.695 188.395 120.026 187.776C120.356 187.147 120.81 186.667 121.386 186.336C121.962 186.005 122.618 185.84 123.354 185.84C124.1 185.84 124.735 186 125.258 186.32C125.791 186.64 126.196 187.077 126.474 187.632C126.751 188.176 126.89 188.789 126.89 189.472C126.89 189.653 126.884 189.819 126.874 189.968C126.863 190.117 126.847 190.251 126.826 190.368H120.794C120.858 191.211 121.119 191.867 121.578 192.336C122.036 192.805 122.644 193.04 123.402 193.04C123.988 193.04 124.463 192.928 124.826 192.704C125.199 192.48 125.498 192.176 125.722 191.792L126.73 192.384C126.431 192.928 125.999 193.36 125.434 193.68C124.879 194 124.212 194.16 123.434 194.16ZM123.322 186.96C122.65 186.96 122.095 187.163 121.658 187.568C121.231 187.963 120.959 188.517 120.842 189.232H125.61C125.578 188.507 125.354 187.947 124.938 187.552C124.522 187.157 123.983 186.96 123.322 186.96ZM133.996 188.832C133.996 188.235 133.836 187.776 133.516 187.456C133.196 187.125 132.743 186.96 132.156 186.96C131.601 186.96 131.132 187.083 130.748 187.328C130.364 187.563 130.081 187.947 129.9 188.48L128.86 187.84C129.073 187.243 129.468 186.763 130.044 186.4C130.62 186.027 131.335 185.84 132.188 185.84C132.764 185.84 133.287 185.941 133.756 186.144C134.225 186.336 134.593 186.635 134.86 187.04C135.137 187.435 135.276 187.947 135.276 188.576V192.448C135.276 192.832 135.479 193.024 135.884 193.024C136.087 193.024 136.284 192.997 136.476 192.944L136.412 193.952C136.199 194.059 135.921 194.112 135.58 194.112C135.185 194.112 134.844 194.016 134.556 193.824C134.279 193.632 134.097 193.339 134.012 192.944C133.735 193.36 133.356 193.669 132.876 193.872C132.396 194.064 131.921 194.16 131.452 194.16C130.983 194.16 130.545 194.08 130.14 193.92C129.735 193.76 129.409 193.52 129.164 193.2C128.929 192.869 128.812 192.464 128.812 191.984C128.812 191.387 129.009 190.896 129.404 190.512C129.809 190.117 130.369 189.851 131.084 189.712L133.996 189.136V188.832ZM130.124 191.92C130.124 192.251 130.252 192.523 130.508 192.736C130.775 192.939 131.148 193.04 131.628 193.04C132.044 193.04 132.428 192.971 132.78 192.832C133.143 192.683 133.436 192.464 133.66 192.176C133.884 191.877 133.996 191.499 133.996 191.04V190.192L131.676 190.672C131.153 190.779 130.764 190.928 130.508 191.12C130.252 191.312 130.124 191.579 130.124 191.92ZM142.874 186V187.104H139.962V191.792C139.962 192.187 140.074 192.48 140.298 192.672C140.522 192.864 140.81 192.96 141.162 192.96C141.471 192.96 141.738 192.907 141.962 192.8C142.186 192.693 142.389 192.549 142.57 192.368L143.018 193.44C142.773 193.664 142.479 193.84 142.138 193.968C141.807 194.096 141.423 194.16 140.986 194.16C140.581 194.16 140.202 194.091 139.85 193.952C139.498 193.803 139.215 193.573 139.002 193.264C138.799 192.944 138.693 192.528 138.682 192.016V187.104H137.082V186H138.682V184.08L139.962 183.728V186H142.874ZM145.417 184.464C145.129 184.464 144.894 184.379 144.713 184.208C144.542 184.027 144.457 183.792 144.457 183.504C144.457 183.216 144.542 182.987 144.713 182.816C144.894 182.635 145.129 182.544 145.417 182.544C145.705 182.544 145.934 182.635 146.105 182.816C146.286 182.987 146.377 183.216 146.377 183.504C146.377 183.792 146.286 184.027 146.105 184.208C145.934 184.379 145.705 184.464 145.417 184.464ZM146.057 186V194H144.777V186H146.057ZM152.339 185.84C153.096 185.84 153.763 186.005 154.339 186.336C154.926 186.667 155.384 187.147 155.715 187.776C156.046 188.395 156.211 189.136 156.211 190C156.211 190.864 156.046 191.611 155.715 192.24C155.384 192.859 154.926 193.333 154.339 193.664C153.763 193.995 153.096 194.16 152.339 194.16C151.592 194.16 150.926 193.995 150.339 193.664C149.752 193.333 149.294 192.859 148.963 192.24C148.632 191.611 148.467 190.864 148.467 190C148.467 189.136 148.632 188.395 148.963 187.776C149.294 187.147 149.752 186.667 150.339 186.336C150.926 186.005 151.592 185.84 152.339 185.84ZM152.339 186.944C151.528 186.944 150.894 187.216 150.435 187.76C149.976 188.304 149.747 189.051 149.747 190C149.747 190.949 149.976 191.696 150.435 192.24C150.894 192.784 151.528 193.056 152.339 193.056C153.15 193.056 153.784 192.784 154.243 192.24C154.702 191.696 154.931 190.949 154.931 190C154.931 189.051 154.702 188.304 154.243 187.76C153.784 187.216 153.15 186.944 152.339 186.944ZM158.621 194V186H159.741L159.821 187.248C160.098 186.747 160.477 186.389 160.957 186.176C161.437 185.952 161.954 185.84 162.509 185.84C163.085 185.84 163.607 185.952 164.077 186.176C164.546 186.389 164.919 186.72 165.197 187.168C165.485 187.616 165.629 188.187 165.629 188.88V194H164.349V189.328C164.349 188.443 164.157 187.829 163.773 187.488C163.399 187.136 162.935 186.96 162.381 186.96C161.997 186.96 161.613 187.051 161.229 187.232C160.845 187.413 160.525 187.707 160.269 188.112C160.023 188.517 159.901 189.061 159.901 189.744V194H158.621ZM171.407 194.16C170.628 194.16 169.908 193.995 169.247 193.664C168.596 193.333 168.095 192.864 167.743 192.256L168.831 191.472C169.066 191.963 169.407 192.347 169.855 192.624C170.314 192.901 170.863 193.04 171.503 193.04C172.068 193.04 172.511 192.933 172.831 192.72C173.151 192.496 173.311 192.208 173.311 191.856C173.311 191.632 173.236 191.429 173.087 191.248C172.948 191.056 172.676 190.917 172.271 190.832L170.351 190.432C169.572 190.272 169.012 190.005 168.671 189.632C168.34 189.259 168.175 188.795 168.175 188.24C168.175 187.803 168.298 187.403 168.543 187.04C168.799 186.677 169.156 186.389 169.615 186.176C170.084 185.952 170.634 185.84 171.263 185.84C172.052 185.84 172.719 185.995 173.263 186.304C173.807 186.613 174.212 187.051 174.479 187.616L173.407 188.32C173.226 187.851 172.932 187.509 172.527 187.296C172.122 187.072 171.7 186.96 171.263 186.96C170.687 186.96 170.239 187.077 169.919 187.312C169.599 187.547 169.439 187.84 169.439 188.192C169.439 188.427 169.519 188.645 169.679 188.848C169.839 189.04 170.138 189.179 170.575 189.264L172.575 189.68C173.322 189.829 173.844 190.075 174.143 190.416C174.442 190.757 174.591 191.173 174.591 191.664C174.591 192.421 174.298 193.029 173.711 193.488C173.124 193.936 172.356 194.16 171.407 194.16ZM186.697 186V187.104H184.025V194H182.745V187.104H181.145V186H182.745V184.656C182.745 183.941 182.963 183.36 183.401 182.912C183.838 182.464 184.494 182.24 185.369 182.24C185.646 182.24 185.907 182.272 186.153 182.336C186.398 182.4 186.59 182.491 186.729 182.608L186.393 183.648C186.137 183.488 185.833 183.408 185.481 183.408C185.022 183.408 184.665 183.52 184.409 183.744C184.153 183.957 184.025 184.304 184.025 184.784V186H186.697ZM191.495 185.84C192.253 185.84 192.919 186.005 193.495 186.336C194.082 186.667 194.541 187.147 194.871 187.776C195.202 188.395 195.367 189.136 195.367 190C195.367 190.864 195.202 191.611 194.871 192.24C194.541 192.859 194.082 193.333 193.495 193.664C192.919 193.995 192.253 194.16 191.495 194.16C190.749 194.16 190.082 193.995 189.495 193.664C188.909 193.333 188.45 192.859 188.119 192.24C187.789 191.611 187.623 190.864 187.623 190C187.623 189.136 187.789 188.395 188.119 187.776C188.45 187.147 188.909 186.667 189.495 186.336C190.082 186.005 190.749 185.84 191.495 185.84ZM191.495 186.944C190.685 186.944 190.05 187.216 189.591 187.76C189.133 188.304 188.903 189.051 188.903 190C188.903 190.949 189.133 191.696 189.591 192.24C190.05 192.784 190.685 193.056 191.495 193.056C192.306 193.056 192.941 192.784 193.399 192.24C193.858 191.696 194.087 190.949 194.087 190C194.087 189.051 193.858 188.304 193.399 187.76C192.941 187.216 192.306 186.944 191.495 186.944ZM197.777 194V186H198.817L198.993 187.312C199.441 186.331 200.294 185.84 201.553 185.84C201.692 185.84 201.841 185.851 202.001 185.872C202.172 185.893 202.316 185.936 202.433 186L202.209 187.168C202.092 187.125 201.964 187.093 201.825 187.072C201.686 187.051 201.489 187.04 201.233 187.04C200.902 187.04 200.566 187.136 200.225 187.328C199.894 187.52 199.617 187.813 199.393 188.208C199.169 188.592 199.057 189.083 199.057 189.68V194H197.777ZM213.874 186V187.104H210.962V191.792C210.962 192.187 211.074 192.48 211.298 192.672C211.522 192.864 211.81 192.96 212.162 192.96C212.471 192.96 212.738 192.907 212.962 192.8C213.186 192.693 213.389 192.549 213.57 192.368L214.018 193.44C213.773 193.664 213.479 193.84 213.138 193.968C212.807 194.096 212.423 194.16 211.986 194.16C211.581 194.16 211.202 194.091 210.85 193.952C210.498 193.803 210.215 193.573 210.002 193.264C209.799 192.944 209.693 192.528 209.682 192.016V187.104H208.082V186H209.682V184.08L210.962 183.728V186H213.874ZM215.777 194V182.32H217.057V187.2C217.334 186.72 217.702 186.373 218.161 186.16C218.62 185.947 219.121 185.84 219.665 185.84C220.241 185.84 220.764 185.952 221.233 186.176C221.702 186.389 222.076 186.72 222.353 187.168C222.641 187.616 222.785 188.187 222.785 188.88V194H221.505V189.328C221.505 188.443 221.313 187.829 220.929 187.488C220.556 187.136 220.092 186.96 219.537 186.96C219.153 186.96 218.769 187.051 218.385 187.232C218.001 187.413 217.681 187.712 217.425 188.128C217.18 188.533 217.057 189.077 217.057 189.76V194H215.777ZM229.027 194.16C228.27 194.16 227.593 193.995 226.995 193.664C226.409 193.333 225.95 192.859 225.619 192.24C225.289 191.611 225.123 190.864 225.123 190C225.123 189.136 225.289 188.395 225.619 187.776C225.95 187.147 226.403 186.667 226.979 186.336C227.555 186.005 228.211 185.84 228.947 185.84C229.694 185.84 230.329 186 230.851 186.32C231.385 186.64 231.79 187.077 232.067 187.632C232.345 188.176 232.483 188.789 232.483 189.472C232.483 189.653 232.478 189.819 232.467 189.968C232.457 190.117 232.441 190.251 232.419 190.368H226.387C226.451 191.211 226.713 191.867 227.171 192.336C227.63 192.805 228.238 193.04 228.995 193.04C229.582 193.04 230.057 192.928 230.419 192.704C230.793 192.48 231.091 192.176 231.315 191.792L232.323 192.384C232.025 192.928 231.593 193.36 231.027 193.68C230.473 194 229.806 194.16 229.027 194.16ZM228.915 186.96C228.243 186.96 227.689 187.163 227.251 187.568C226.825 187.963 226.553 188.517 226.435 189.232H231.203C231.171 188.507 230.947 187.947 230.531 187.552C230.115 187.157 229.577 186.96 228.915 186.96ZM52.113 223.36V212H53.233L53.313 213.408C53.5583 212.939 53.921 212.56 54.401 212.272C54.8917 211.984 55.4517 211.84 56.081 211.84C56.7317 211.84 57.329 212.005 57.873 212.336C58.4277 212.667 58.8703 213.141 59.201 213.76C59.5317 214.379 59.697 215.125 59.697 216C59.697 216.864 59.5263 217.611 59.185 218.24C58.8543 218.859 58.4117 219.333 57.857 219.664C57.3023 219.995 56.6943 220.16 56.033 220.16C55.4357 220.16 54.9077 220.032 54.449 219.776C53.9903 219.509 53.6383 219.168 53.393 218.752V223.36H52.113ZM55.905 219.04C56.6943 219.04 57.3077 218.763 57.745 218.208C58.193 217.653 58.417 216.917 58.417 216C58.417 215.083 58.1983 214.347 57.761 213.792C57.3343 213.237 56.7317 212.96 55.953 212.96C55.185 212.96 54.5663 213.237 54.097 213.792C53.6277 214.347 53.393 215.083 53.393 216C53.393 216.917 53.6223 217.653 54.081 218.208C54.5397 218.763 55.1477 219.04 55.905 219.04ZM62.1443 220V212H63.1843L63.3603 213.312C63.8083 212.331 64.6616 211.84 65.9203 211.84C66.0589 211.84 66.2083 211.851 66.3683 211.872C66.5389 211.893 66.6829 211.936 66.8003 212L66.5763 213.168C66.4589 213.125 66.3309 213.093 66.1923 213.072C66.0536 213.051 65.8563 213.04 65.6003 213.04C65.2696 213.04 64.9336 213.136 64.5923 213.328C64.2616 213.52 63.9843 213.813 63.7603 214.208C63.5363 214.592 63.4243 215.083 63.4243 215.68V220H62.1443ZM73.1288 214.832C73.1288 214.235 72.9688 213.776 72.6488 213.456C72.3288 213.125 71.8754 212.96 71.2888 212.96C70.7341 212.96 70.2648 213.083 69.8808 213.328C69.4968 213.563 69.2141 213.947 69.0328 214.48L67.9928 213.84C68.2061 213.243 68.6008 212.763 69.1768 212.4C69.7528 212.027 70.4674 211.84 71.3208 211.84C71.8968 211.84 72.4194 211.941 72.8888 212.144C73.3581 212.336 73.7261 212.635 73.9928 213.04C74.2701 213.435 74.4088 213.947 74.4088 214.576V218.448C74.4088 218.832 74.6114 219.024 75.0168 219.024C75.2194 219.024 75.4168 218.997 75.6088 218.944L75.5448 219.952C75.3314 220.059 75.0541 220.112 74.7128 220.112C74.3181 220.112 73.9768 220.016 73.6888 219.824C73.4114 219.632 73.2301 219.339 73.1448 218.944C72.8674 219.36 72.4888 219.669 72.0088 219.872C71.5288 220.064 71.0541 220.16 70.5848 220.16C70.1154 220.16 69.6781 220.08 69.2728 219.92C68.8674 219.76 68.5421 219.52 68.2968 219.2C68.0621 218.869 67.9448 218.464 67.9448 217.984C67.9448 217.387 68.1421 216.896 68.5368 216.512C68.9421 216.117 69.5021 215.851 70.2168 215.712L73.1288 215.136V214.832ZM69.2568 217.92C69.2568 218.251 69.3848 218.523 69.6408 218.736C69.9074 218.939 70.2808 219.04 70.7608 219.04C71.1768 219.04 71.5608 218.971 71.9128 218.832C72.2754 218.683 72.5688 218.464 72.7928 218.176C73.0168 217.877 73.1288 217.499 73.1288 217.04V216.192L70.8088 216.672C70.2861 216.779 69.8968 216.928 69.6408 217.12C69.3848 217.312 69.2568 217.579 69.2568 217.92ZM80.8313 211.84C81.6526 211.84 82.3353 212.032 82.8793 212.416C83.4233 212.789 83.8446 213.307 84.1433 213.968L82.9273 214.544C82.7566 214.032 82.4953 213.643 82.1433 213.376C81.8019 213.099 81.3539 212.96 80.7993 212.96C79.9993 212.96 79.3699 213.232 78.9113 213.776C78.4633 214.309 78.2393 215.051 78.2393 216C78.2393 216.949 78.4633 217.696 78.9113 218.24C79.3699 218.773 79.9993 219.04 80.7993 219.04C81.4286 219.04 81.9299 218.896 82.3033 218.608C82.6766 218.32 82.9219 217.915 83.0393 217.392L84.2233 217.808C83.9566 218.544 83.5353 219.12 82.9593 219.536C82.3939 219.952 81.6846 220.16 80.8313 220.16C80.0846 220.16 79.4179 219.995 78.8313 219.664C78.2446 219.333 77.7859 218.859 77.4553 218.24C77.1246 217.611 76.9593 216.864 76.9593 216C76.9593 215.136 77.1246 214.395 77.4553 213.776C77.7859 213.147 78.2446 212.667 78.8313 212.336C79.4179 212.005 80.0846 211.84 80.8313 211.84ZM91.2724 212V213.104H88.3604V217.792C88.3604 218.187 88.4724 218.48 88.6964 218.672C88.9204 218.864 89.2084 218.96 89.5604 218.96C89.8697 218.96 90.1364 218.907 90.3604 218.8C90.5844 218.693 90.787 218.549 90.9684 218.368L91.4164 219.44C91.171 219.664 90.8777 219.84 90.5364 219.968C90.2057 220.096 89.8217 220.16 89.3844 220.16C88.979 220.16 88.6004 220.091 88.2484 219.952C87.8964 219.803 87.6137 219.573 87.4004 219.264C87.1977 218.944 87.091 218.528 87.0804 218.016V213.104H85.4804V212H87.0804V210.08L88.3604 209.728V212H91.2724ZM93.8155 210.464C93.5275 210.464 93.2928 210.379 93.1115 210.208C92.9408 210.027 92.8555 209.792 92.8555 209.504C92.8555 209.216 92.9408 208.987 93.1115 208.816C93.2928 208.635 93.5275 208.544 93.8155 208.544C94.1035 208.544 94.3328 208.635 94.5035 208.816C94.6848 208.987 94.7755 209.216 94.7755 209.504C94.7755 209.792 94.6848 210.027 94.5035 210.208C94.3328 210.379 94.1035 210.464 93.8155 210.464ZM94.4555 212V220H93.1755V212H94.4555ZM100.738 211.84C101.559 211.84 102.242 212.032 102.786 212.416C103.33 212.789 103.751 213.307 104.05 213.968L102.834 214.544C102.663 214.032 102.402 213.643 102.05 213.376C101.708 213.099 101.26 212.96 100.706 212.96C99.9055 212.96 99.2762 213.232 98.8175 213.776C98.3695 214.309 98.1455 215.051 98.1455 216C98.1455 216.949 98.3695 217.696 98.8175 218.24C99.2762 218.773 99.9055 219.04 100.706 219.04C101.335 219.04 101.836 218.896 102.21 218.608C102.583 218.32 102.828 217.915 102.946 217.392L104.13 217.808C103.863 218.544 103.442 219.12 102.866 219.536C102.3 219.952 101.591 220.16 100.738 220.16C99.9908 220.16 99.3242 219.995 98.7375 219.664C98.1508 219.333 97.6922 218.859 97.3615 218.24C97.0308 217.611 96.8655 216.864 96.8655 216C96.8655 215.136 97.0308 214.395 97.3615 213.776C97.6922 213.147 98.1508 212.667 98.7375 212.336C99.3242 212.005 99.9908 211.84 100.738 211.84ZM109.723 220.16C108.965 220.16 108.288 219.995 107.691 219.664C107.104 219.333 106.645 218.859 106.315 218.24C105.984 217.611 105.819 216.864 105.819 216C105.819 215.136 105.984 214.395 106.315 213.776C106.645 213.147 107.099 212.667 107.675 212.336C108.251 212.005 108.907 211.84 109.643 211.84C110.389 211.84 111.024 212 111.547 212.32C112.08 212.64 112.485 213.077 112.763 213.632C113.04 214.176 113.179 214.789 113.179 215.472C113.179 215.653 113.173 215.819 113.163 215.968C113.152 216.117 113.136 216.251 113.115 216.368H107.083C107.147 217.211 107.408 217.867 107.867 218.336C108.325 218.805 108.933 219.04 109.691 219.04C110.277 219.04 110.752 218.928 111.115 218.704C111.488 218.48 111.787 218.176 112.011 217.792L113.019 218.384C112.72 218.928 112.288 219.36 111.723 219.68C111.168 220 110.501 220.16 109.723 220.16ZM109.611 212.96C108.939 212.96 108.384 213.163 107.947 213.568C107.52 213.963 107.248 214.517 107.131 215.232H111.899C111.867 214.507 111.643 213.947 111.227 213.552C110.811 213.157 110.272 212.96 109.611 212.96ZM123.946 220.16C123.167 220.16 122.447 219.995 121.786 219.664C121.135 219.333 120.634 218.864 120.282 218.256L121.37 217.472C121.605 217.963 121.946 218.347 122.394 218.624C122.853 218.901 123.402 219.04 124.042 219.04C124.607 219.04 125.05 218.933 125.37 218.72C125.69 218.496 125.85 218.208 125.85 217.856C125.85 217.632 125.775 217.429 125.626 217.248C125.487 217.056 125.215 216.917 124.81 216.832L122.89 216.432C122.111 216.272 121.551 216.005 121.21 215.632C120.879 215.259 120.714 214.795 120.714 214.24C120.714 213.803 120.837 213.403 121.082 213.04C121.338 212.677 121.695 212.389 122.154 212.176C122.623 211.952 123.173 211.84 123.802 211.84C124.591 211.84 125.258 211.995 125.802 212.304C126.346 212.613 126.751 213.051 127.018 213.616L125.946 214.32C125.765 213.851 125.471 213.509 125.066 213.296C124.661 213.072 124.239 212.96 123.802 212.96C123.226 212.96 122.778 213.077 122.458 213.312C122.138 213.547 121.978 213.84 121.978 214.192C121.978 214.427 122.058 214.645 122.218 214.848C122.378 215.04 122.677 215.179 123.114 215.264L125.114 215.68C125.861 215.829 126.383 216.075 126.682 216.416C126.981 216.757 127.13 217.173 127.13 217.664C127.13 218.421 126.837 219.029 126.25 219.488C125.663 219.936 124.895 220.16 123.946 220.16ZM134.176 214.832C134.176 214.235 134.016 213.776 133.696 213.456C133.376 213.125 132.922 212.96 132.336 212.96C131.781 212.96 131.312 213.083 130.928 213.328C130.544 213.563 130.261 213.947 130.08 214.48L129.04 213.84C129.253 213.243 129.648 212.763 130.224 212.4C130.8 212.027 131.514 211.84 132.368 211.84C132.944 211.84 133.466 211.941 133.936 212.144C134.405 212.336 134.773 212.635 135.04 213.04C135.317 213.435 135.456 213.947 135.456 214.576V218.448C135.456 218.832 135.658 219.024 136.064 219.024C136.266 219.024 136.464 218.997 136.656 218.944L136.592 219.952C136.378 220.059 136.101 220.112 135.76 220.112C135.365 220.112 135.024 220.016 134.736 219.824C134.458 219.632 134.277 219.339 134.192 218.944C133.914 219.36 133.536 219.669 133.056 219.872C132.576 220.064 132.101 220.16 131.632 220.16C131.162 220.16 130.725 220.08 130.32 219.92C129.914 219.76 129.589 219.52 129.344 219.2C129.109 218.869 128.992 218.464 128.992 217.984C128.992 217.387 129.189 216.896 129.584 216.512C129.989 216.117 130.549 215.851 131.264 215.712L134.176 215.136V214.832ZM130.304 217.92C130.304 218.251 130.432 218.523 130.688 218.736C130.954 218.939 131.328 219.04 131.808 219.04C132.224 219.04 132.608 218.971 132.96 218.832C133.322 218.683 133.616 218.464 133.84 218.176C134.064 217.877 134.176 217.499 134.176 217.04V216.192L131.856 216.672C131.333 216.779 130.944 216.928 130.688 217.12C130.432 217.312 130.304 217.579 130.304 217.92ZM143.064 212V213.104H140.392V220H139.112V213.104H137.512V212H139.112V210.656C139.112 209.941 139.331 209.36 139.768 208.912C140.205 208.464 140.861 208.24 141.736 208.24C142.013 208.24 142.275 208.272 142.52 208.336C142.765 208.4 142.957 208.491 143.096 208.608L142.76 209.648C142.504 209.488 142.2 209.408 141.848 209.408C141.389 209.408 141.032 209.52 140.776 209.744C140.52 209.957 140.392 210.304 140.392 210.784V212H143.064ZM147.895 220.16C147.137 220.16 146.46 219.995 145.863 219.664C145.276 219.333 144.817 218.859 144.487 218.24C144.156 217.611 143.991 216.864 143.991 216C143.991 215.136 144.156 214.395 144.487 213.776C144.817 213.147 145.271 212.667 145.847 212.336C146.423 212.005 147.079 211.84 147.815 211.84C148.561 211.84 149.196 212 149.719 212.32C150.252 212.64 150.657 213.077 150.935 213.632C151.212 214.176 151.351 214.789 151.351 215.472C151.351 215.653 151.345 215.819 151.335 215.968C151.324 216.117 151.308 216.251 151.286 216.368H145.255C145.319 217.211 145.58 217.867 146.039 218.336C146.497 218.805 147.105 219.04 147.863 219.04C148.449 219.04 148.924 218.928 149.287 218.704C149.66 218.48 149.959 218.176 150.183 217.792L151.191 218.384C150.892 218.928 150.46 219.36 149.895 219.68C149.34 220 148.673 220.16 147.895 220.16ZM147.783 212.96C147.111 212.96 146.556 213.163 146.119 213.568C145.692 213.963 145.42 214.517 145.303 215.232H150.071C150.039 214.507 149.815 213.947 149.399 213.552C148.983 213.157 148.444 212.96 147.783 212.96ZM162.358 220.16C161.697 220.16 161.089 219.995 160.534 219.664C159.979 219.333 159.537 218.859 159.206 218.24C158.875 217.611 158.71 216.864 158.71 216C158.71 215.115 158.886 214.363 159.238 213.744C159.59 213.125 160.054 212.656 160.63 212.336C161.206 212.005 161.825 211.84 162.486 211.84C163.062 211.84 163.574 211.973 164.022 212.24C164.47 212.496 164.801 212.848 165.014 213.296V208.32H166.294V220H165.174L165.094 218.496C164.87 219.04 164.507 219.456 164.006 219.744C163.505 220.021 162.955 220.16 162.358 220.16ZM162.486 219.04C163.243 219.04 163.851 218.757 164.31 218.192C164.779 217.627 165.014 216.859 165.014 215.888C165.014 214.971 164.785 214.256 164.326 213.744C163.867 213.221 163.275 212.96 162.55 212.96C161.739 212.96 161.11 213.237 160.662 213.792C160.214 214.347 159.99 215.083 159.99 216C159.99 216.917 160.209 217.653 160.646 218.208C161.083 218.763 161.697 219.04 162.486 219.04ZM172.613 220.16C171.856 220.16 171.179 219.995 170.581 219.664C169.995 219.333 169.536 218.859 169.205 218.24C168.875 217.611 168.709 216.864 168.709 216C168.709 215.136 168.875 214.395 169.205 213.776C169.536 213.147 169.989 212.667 170.565 212.336C171.141 212.005 171.797 211.84 172.533 211.84C173.28 211.84 173.915 212 174.437 212.32C174.971 212.64 175.376 213.077 175.653 213.632C175.931 214.176 176.069 214.789 176.069 215.472C176.069 215.653 176.064 215.819 176.053 215.968C176.043 216.117 176.027 216.251 176.005 216.368H169.973C170.037 217.211 170.299 217.867 170.757 218.336C171.216 218.805 171.824 219.04 172.581 219.04C173.168 219.04 173.643 218.928 174.005 218.704C174.379 218.48 174.677 218.176 174.901 217.792L175.909 218.384C175.611 218.928 175.179 219.36 174.613 219.68C174.059 220 173.392 220.16 172.613 220.16ZM172.501 212.96C171.829 212.96 171.275 213.163 170.837 213.568C170.411 213.963 170.139 214.517 170.021 215.232H174.789C174.757 214.507 174.533 213.947 174.117 213.552C173.701 213.157 173.163 212.96 172.501 212.96ZM181.384 220.16C180.605 220.16 179.885 219.995 179.224 219.664C178.573 219.333 178.072 218.864 177.72 218.256L178.808 217.472C179.042 217.963 179.384 218.347 179.832 218.624C180.29 218.901 180.84 219.04 181.48 219.04C182.045 219.04 182.488 218.933 182.808 218.72C183.128 218.496 183.288 218.208 183.288 217.856C183.288 217.632 183.213 217.429 183.064 217.248C182.925 217.056 182.653 216.917 182.248 216.832L180.328 216.432C179.549 216.272 178.989 216.005 178.648 215.632C178.317 215.259 178.152 214.795 178.152 214.24C178.152 213.803 178.274 213.403 178.52 213.04C178.776 212.677 179.133 212.389 179.592 212.176C180.061 211.952 180.61 211.84 181.24 211.84C182.029 211.84 182.696 211.995 183.24 212.304C183.784 212.613 184.189 213.051 184.456 213.616L183.384 214.32C183.202 213.851 182.909 213.509 182.504 213.296C182.098 213.072 181.677 212.96 181.24 212.96C180.664 212.96 180.216 213.077 179.896 213.312C179.576 213.547 179.416 213.84 179.416 214.192C179.416 214.427 179.496 214.645 179.656 214.848C179.816 215.04 180.114 215.179 180.552 215.264L182.552 215.68C183.298 215.829 183.821 216.075 184.12 216.416C184.418 216.757 184.568 217.173 184.568 217.664C184.568 218.421 184.274 219.029 183.688 219.488C183.101 219.936 182.333 220.16 181.384 220.16ZM187.581 210.464C187.293 210.464 187.058 210.379 186.877 210.208C186.706 210.027 186.621 209.792 186.621 209.504C186.621 209.216 186.706 208.987 186.877 208.816C187.058 208.635 187.293 208.544 187.581 208.544C187.869 208.544 188.098 208.635 188.269 208.816C188.45 208.987 188.541 209.216 188.541 209.504C188.541 209.792 188.45 210.027 188.269 210.208C188.098 210.379 187.869 210.464 187.581 210.464ZM188.221 212V220H186.941V212H188.221ZM195.495 218.976C196.252 218.976 196.844 219.152 197.271 219.504C197.698 219.845 197.911 220.304 197.911 220.88C197.911 221.403 197.735 221.856 197.383 222.24C197.042 222.624 196.578 222.917 195.991 223.12C195.415 223.333 194.764 223.44 194.039 223.44C192.78 223.44 191.836 223.227 191.207 222.8C190.588 222.373 190.279 221.861 190.279 221.264C190.279 220.901 190.38 220.571 190.583 220.272C190.786 219.973 191.122 219.76 191.591 219.632C191.335 219.515 191.127 219.355 190.967 219.152C190.807 218.939 190.727 218.656 190.727 218.304C190.727 217.973 190.823 217.675 191.015 217.408C191.207 217.131 191.495 216.917 191.879 216.768C191.474 216.533 191.164 216.224 190.951 215.84C190.738 215.456 190.631 215.024 190.631 214.544C190.631 214.011 190.77 213.541 191.047 213.136C191.335 212.731 191.724 212.416 192.215 212.192C192.706 211.957 193.271 211.84 193.911 211.84C194.583 211.84 195.186 211.973 195.719 212.24C195.794 211.707 196.028 211.291 196.423 210.992C196.828 210.683 197.303 210.528 197.847 210.528H197.927L198.215 211.664H198.103C197.612 211.664 197.228 211.755 196.951 211.936C196.674 212.117 196.519 212.4 196.487 212.784C196.956 213.275 197.191 213.861 197.191 214.544C197.191 215.067 197.052 215.536 196.775 215.952C196.498 216.357 196.108 216.677 195.607 216.912C195.116 217.136 194.551 217.248 193.911 217.248C193.516 217.248 193.148 217.211 192.807 217.136C192.487 217.232 192.258 217.365 192.119 217.536C191.98 217.707 191.911 217.893 191.911 218.096C191.911 218.683 192.327 218.976 193.159 218.976H195.495ZM193.911 212.88C193.356 212.88 192.892 213.035 192.519 213.344C192.146 213.643 191.959 214.043 191.959 214.544C191.959 215.035 192.146 215.435 192.519 215.744C192.892 216.053 193.356 216.208 193.911 216.208C194.466 216.208 194.93 216.053 195.303 215.744C195.676 215.435 195.863 215.035 195.863 214.544C195.863 214.043 195.676 213.643 195.303 213.344C194.93 213.035 194.466 212.88 193.911 212.88ZM194.023 222.368C194.951 222.368 195.634 222.229 196.071 221.952C196.508 221.685 196.727 221.376 196.727 221.024C196.727 220.736 196.61 220.507 196.375 220.336C196.151 220.165 195.74 220.08 195.143 220.08H192.679C192.338 220.08 192.05 220.165 191.815 220.336C191.58 220.517 191.463 220.763 191.463 221.072C191.463 221.467 191.687 221.781 192.135 222.016C192.594 222.251 193.223 222.368 194.023 222.368ZM199.707 220V212H200.827L200.907 213.248C201.184 212.747 201.563 212.389 202.043 212.176C202.523 211.952 203.04 211.84 203.595 211.84C204.171 211.84 204.693 211.952 205.163 212.176C205.632 212.389 206.005 212.72 206.283 213.168C206.571 213.616 206.715 214.187 206.715 214.88V220H205.435V215.328C205.435 214.443 205.243 213.829 204.859 213.488C204.485 213.136 204.021 212.96 203.467 212.96C203.083 212.96 202.699 213.051 202.315 213.232C201.931 213.413 201.611 213.707 201.355 214.112C201.109 214.517 200.987 215.061 200.987 215.744V220H199.707ZM210.253 218.08C210.562 218.08 210.813 218.176 211.005 218.368C211.197 218.56 211.293 218.811 211.293 219.12C211.293 219.429 211.197 219.68 211.005 219.872C210.813 220.064 210.562 220.16 210.253 220.16C209.944 220.16 209.693 220.064 209.501 219.872C209.309 219.68 209.213 219.429 209.213 219.12C209.213 218.811 209.309 218.56 209.501 218.368C209.693 218.176 209.944 218.08 210.253 218.08Z" fill="#707273"/>
<path d="M76.7713 157L72.7393 143.14H75.8263L78.5563 154.585L81.3283 143.14H84.1003L86.9143 154.585L89.6233 143.14H92.5843L88.5523 157H85.2973L83.3653 149.44L82.7143 146.164H82.6723L82.0213 149.44L80.1103 157H76.7713ZM98.4323 157.21C96.7803 157.21 95.4573 156.734 94.4633 155.782C93.4693 154.816 92.9723 153.472 92.9723 151.75C92.9723 150.602 93.1963 149.622 93.6443 148.81C94.0923 147.998 94.7153 147.375 95.5133 146.941C96.3253 146.507 97.2493 146.29 98.2853 146.29C99.3493 146.29 100.252 146.507 100.994 146.941C101.736 147.361 102.303 147.942 102.695 148.684C103.087 149.412 103.283 150.245 103.283 151.183C103.283 151.463 103.276 151.729 103.262 151.981C103.248 152.233 103.227 152.457 103.199 152.653H95.7863C95.8983 153.465 96.1783 154.074 96.6263 154.48C97.0883 154.872 97.6833 155.068 98.4113 155.068C99.0273 155.068 99.5243 154.949 99.9023 154.711C100.28 154.473 100.574 154.144 100.784 153.724L103.073 154.606C102.737 155.432 102.149 156.076 101.309 156.538C100.469 156.986 99.5103 157.21 98.4323 157.21ZM98.2643 148.411C96.9063 148.411 96.0873 149.16 95.8073 150.658H100.532C100.448 149.93 100.21 149.377 99.8183 148.999C99.4403 148.607 98.9223 148.411 98.2643 148.411ZM111.895 157.21C111.055 157.21 110.327 156.993 109.711 156.559C109.109 156.111 108.661 155.53 108.367 154.816L108.262 157H105.721V141.901H108.598V148.285C108.906 147.697 109.34 147.221 109.9 146.857C110.474 146.479 111.167 146.29 111.979 146.29C112.819 146.29 113.568 146.507 114.226 146.941C114.898 147.375 115.423 148.005 115.801 148.831C116.193 149.643 116.389 150.623 116.389 151.771C116.389 152.919 116.193 153.899 115.801 154.711C115.423 155.509 114.891 156.125 114.205 156.559C113.533 156.993 112.763 157.21 111.895 157.21ZM111.034 155.005C111.818 155.005 112.427 154.732 112.861 154.186C113.295 153.626 113.512 152.814 113.512 151.75C113.512 150.686 113.295 149.881 112.861 149.335C112.427 148.775 111.825 148.495 111.055 148.495C110.313 148.495 109.718 148.796 109.27 149.398C108.822 149.986 108.598 150.777 108.598 151.771C108.598 152.793 108.822 153.591 109.27 154.165C109.718 154.725 110.306 155.005 111.034 155.005ZM130.955 143.14C133.125 143.14 134.805 143.742 135.995 144.946C137.185 146.15 137.78 147.858 137.78 150.07C137.78 152.282 137.185 153.99 135.995 155.194C134.805 156.398 133.125 157 130.955 157H125.6V143.14H130.955ZM130.808 154.69C132.124 154.69 133.111 154.298 133.769 153.514C134.441 152.716 134.777 151.568 134.777 150.07C134.777 148.572 134.441 147.431 133.769 146.647C133.111 145.849 132.124 145.45 130.808 145.45H128.498V154.69H130.808ZM145.272 157.21C143.62 157.21 142.297 156.734 141.303 155.782C140.309 154.816 139.812 153.472 139.812 151.75C139.812 150.602 140.036 149.622 140.484 148.81C140.932 147.998 141.555 147.375 142.353 146.941C143.165 146.507 144.089 146.29 145.125 146.29C146.189 146.29 147.092 146.507 147.834 146.941C148.576 147.361 149.143 147.942 149.535 148.684C149.927 149.412 150.123 150.245 150.123 151.183C150.123 151.463 150.116 151.729 150.102 151.981C150.088 152.233 150.067 152.457 150.039 152.653H142.626C142.738 153.465 143.018 154.074 143.466 154.48C143.928 154.872 144.523 155.068 145.251 155.068C145.867 155.068 146.364 154.949 146.742 154.711C147.12 154.473 147.414 154.144 147.624 153.724L149.913 154.606C149.577 155.432 148.989 156.076 148.149 156.538C147.309 156.986 146.35 157.21 145.272 157.21ZM145.104 148.411C143.746 148.411 142.927 149.16 142.647 150.658H147.372C147.288 149.93 147.05 149.377 146.658 148.999C146.28 148.607 145.762 148.411 145.104 148.411ZM156.761 157.21C155.697 157.21 154.724 157.021 153.842 156.643C152.974 156.265 152.267 155.733 151.721 155.047L153.38 153.367C153.716 153.871 154.164 154.284 154.724 154.606C155.284 154.928 155.949 155.089 156.719 155.089C157.265 155.089 157.699 155.012 158.021 154.858C158.357 154.69 158.525 154.431 158.525 154.081C158.525 153.857 158.448 153.668 158.294 153.514C158.14 153.346 157.832 153.213 157.37 153.115L155.522 152.737C154.304 152.485 153.436 152.107 152.918 151.603C152.414 151.085 152.162 150.42 152.162 149.608C152.162 149.034 152.33 148.495 152.666 147.991C153.016 147.487 153.534 147.081 154.22 146.773C154.906 146.451 155.76 146.29 156.782 146.29C158.91 146.29 160.436 146.941 161.36 148.243L159.638 149.923C159.33 149.433 158.924 149.062 158.42 148.81C157.93 148.544 157.412 148.411 156.866 148.411C155.634 148.411 155.018 148.754 155.018 149.44C155.018 149.664 155.116 149.86 155.312 150.028C155.508 150.182 155.865 150.315 156.383 150.427L158.525 150.868C159.561 151.078 160.303 151.435 160.751 151.939C161.199 152.429 161.423 153.024 161.423 153.724C161.423 154.732 161.017 155.565 160.205 156.223C159.407 156.881 158.259 157.21 156.761 157.21ZM165.167 144.988C163.977 144.988 163.382 144.477 163.382 143.455C163.382 142.419 163.977 141.901 165.167 141.901C166.357 141.901 166.952 142.419 166.952 143.455C166.952 144.477 166.357 144.988 165.167 144.988ZM166.595 146.5V157H163.718V146.5H166.595ZM175.881 155.026C177.015 155.026 177.89 155.271 178.506 155.761C179.122 156.251 179.43 156.937 179.43 157.819C179.43 158.631 179.199 159.31 178.737 159.856C178.275 160.402 177.624 160.815 176.784 161.095C175.958 161.375 174.999 161.515 173.907 161.515C172.101 161.515 170.778 161.263 169.938 160.759C169.112 160.255 168.699 159.597 168.699 158.785C168.699 158.309 168.846 157.889 169.14 157.525C169.448 157.175 169.938 156.93 170.61 156.79C169.672 156.44 169.203 155.782 169.203 154.816C169.203 154.34 169.343 153.92 169.623 153.556C169.917 153.192 170.316 152.919 170.82 152.737C169.714 152.121 169.161 151.162 169.161 149.86C169.161 148.754 169.588 147.886 170.442 147.256C171.296 146.612 172.465 146.29 173.949 146.29C174.789 146.29 175.545 146.402 176.217 146.626C176.315 145.898 176.609 145.282 177.099 144.778C177.589 144.26 178.254 144.001 179.094 144.001C179.122 144.001 179.157 144.001 179.199 144.001C179.241 144.001 179.283 144.001 179.325 144.001L179.661 146.059C179.549 146.045 179.423 146.038 179.283 146.038C178.751 146.038 178.324 146.143 178.002 146.353C177.68 146.549 177.477 146.836 177.393 147.214C178.289 147.844 178.737 148.726 178.737 149.86C178.737 150.952 178.303 151.82 177.435 152.464C176.581 153.094 175.419 153.409 173.949 153.409C173.305 153.409 172.717 153.353 172.185 153.241C171.863 153.325 171.632 153.451 171.492 153.619C171.366 153.773 171.303 153.948 171.303 154.144C171.303 154.732 171.751 155.026 172.647 155.026H175.881ZM173.949 148.096C173.389 148.096 172.927 148.25 172.563 148.558C172.199 148.866 172.017 149.293 172.017 149.839C172.017 150.385 172.199 150.819 172.563 151.141C172.927 151.449 173.389 151.603 173.949 151.603C174.495 151.603 174.95 151.449 175.314 151.141C175.678 150.819 175.86 150.385 175.86 149.839C175.86 149.293 175.678 148.866 175.314 148.558C174.95 148.25 174.495 148.096 173.949 148.096ZM173.928 159.541C175.006 159.541 175.804 159.408 176.322 159.142C176.854 158.89 177.12 158.582 177.12 158.218C177.12 157.952 177.015 157.735 176.805 157.567C176.595 157.413 176.217 157.336 175.671 157.336H172.122C171.786 157.336 171.506 157.42 171.282 157.588C171.072 157.77 170.967 158.001 170.967 158.281C170.967 158.673 171.226 158.981 171.744 159.205C172.276 159.429 173.004 159.541 173.928 159.541ZM181.17 157V146.5H183.753L183.858 148.474C184.18 147.746 184.649 147.2 185.265 146.836C185.895 146.472 186.616 146.29 187.428 146.29C188.52 146.29 189.423 146.612 190.137 147.256C190.851 147.886 191.208 148.838 191.208 150.112V157H188.331V150.931C188.331 150.035 188.149 149.419 187.785 149.083C187.435 148.733 186.987 148.558 186.441 148.558C186.049 148.558 185.664 148.656 185.286 148.852C184.922 149.034 184.621 149.335 184.383 149.755C184.159 150.175 184.047 150.735 184.047 151.435V157H181.17Z" fill="#252626"/>
<defs>
<linearGradient id="paint0_linear_10_61" x1="193.688" y1="142.691" x2="264.563" y2="72.0887" gradientUnits="userSpaceOnUse">
<stop stop-color="#35AFBF"/>
<stop offset="1" stop-color="#35AFBF" stop-opacity="0.06"/>
</linearGradient>
<linearGradient id="paint1_linear_10_61" x1="-9.52792" y1="74.7682" x2="61.876" y2="-12.8268" gradientUnits="userSpaceOnUse">
<stop stop-color="#35AFBF"/>
<stop offset="1" stop-color="#35AFBF" stop-opacity="0.06"/>
</linearGradient>
<linearGradient id="paint2_linear_10_61" x1="193.688" y1="256.691" x2="264.563" y2="186.089" gradientUnits="userSpaceOnUse">
<stop stop-color="#35AFBF"/>
<stop offset="1" stop-color="#35AFBF" stop-opacity="0.06"/>
</linearGradient>
<linearGradient id="paint3_linear_10_61" x1="167.996" y1="52.9223" x2="214.597" y2="-17.4839" gradientUnits="userSpaceOnUse">
<stop stop-color="#35AFBF"/>
<stop offset="1" stop-color="#35AFBF" stop-opacity="0.06"/>
</linearGradient>
<linearGradient id="paint4_linear_10_61" x1="84.5672" y1="257.269" x2="117.743" y2="219.881" gradientUnits="userSpaceOnUse">
<stop stop-color="#35AFBF"/>
<stop offset="1" stop-color="#35AFBF" stop-opacity="0.06"/>
</linearGradient>
<linearGradient id="paint5_linear_10_61" x1="-5.61027" y1="199.096" x2="36.0778" y2="151.814" gradientUnits="userSpaceOnUse">
<stop stop-color="#35AFBF"/>
<stop offset="1" stop-color="#35AFBF" stop-opacity="0.06"/>
</linearGradient>
</defs>
</svg>
